<mxfile host="www.draw.io" modified="2019-12-04T09:31:27.998Z" agent="Mozilla/5.0 (Windows NT 10.0; Win64; x64; rv:70.0) Gecko/20100101 Firefox/70.0" etag="acm-Yr4jdLDVxuiwz5EC" version="12.3.6" type="github" pages="1">
  <diagram name="Page-1" id="e7e014a7-5840-1c2e-5031-d8a46d1fe8dd">
    <mxGraphModel dx="1422" dy="769" grid="1" gridSize="10" guides="1" tooltips="1" connect="1" arrows="1" fold="1" page="1" pageScale="1" pageWidth="1169" pageHeight="826" background="#ffffff" math="0" shadow="0">
      <root>
        <mxCell id="0"/>
        <mxCell id="1" parent="0"/>
        <mxCell id="2" value="User" style="swimlane;whiteSpace=wrap;startSize=23;" parent="1" vertex="1">
          <mxGeometry x="160" y="40" width="440" height="712" as="geometry"/>
        </mxCell>
        <mxCell id="mlaz-VWcCHf4LHaq8jaL-57" style="edgeStyle=orthogonalEdgeStyle;rounded=0;orthogonalLoop=1;jettySize=auto;html=1;exitX=0.75;exitY=1;exitDx=0;exitDy=0;entryX=0.5;entryY=0;entryDx=0;entryDy=0;" parent="2" target="mlaz-VWcCHf4LHaq8jaL-50" edge="1">
          <mxGeometry relative="1" as="geometry">
            <mxPoint x="113" y="90" as="sourcePoint"/>
          </mxGeometry>
        </mxCell>
        <mxCell id="mlaz-VWcCHf4LHaq8jaL-65" style="edgeStyle=orthogonalEdgeStyle;rounded=0;orthogonalLoop=1;jettySize=auto;html=1;exitX=1;exitY=0.5;exitDx=0;exitDy=0;entryX=0;entryY=0.5;entryDx=0;entryDy=0;" parent="2" source="mlaz-VWcCHf4LHaq8jaL-41" target="jrbQsvojqIw6uEu-7x9d-24" edge="1">
          <mxGeometry relative="1" as="geometry">
            <mxPoint x="240" y="340" as="targetPoint"/>
          </mxGeometry>
        </mxCell>
        <mxCell id="mlaz-VWcCHf4LHaq8jaL-66" style="edgeStyle=orthogonalEdgeStyle;rounded=0;orthogonalLoop=1;jettySize=auto;html=1;exitX=0.5;exitY=1;exitDx=0;exitDy=0;entryX=0;entryY=0.5;entryDx=0;entryDy=0;" parent="2" source="mlaz-VWcCHf4LHaq8jaL-41" target="jrbQsvojqIw6uEu-7x9d-25" edge="1">
          <mxGeometry relative="1" as="geometry">
            <mxPoint x="240" y="435" as="targetPoint"/>
          </mxGeometry>
        </mxCell>
        <mxCell id="mlaz-VWcCHf4LHaq8jaL-41" value="choose" style="rhombus;whiteSpace=wrap;html=1;fillColor=#ffe6cc;strokeColor=#d79b00;" parent="2" vertex="1">
          <mxGeometry x="70" y="300" width="80" height="80" as="geometry"/>
        </mxCell>
        <mxCell id="mlaz-VWcCHf4LHaq8jaL-67" style="edgeStyle=orthogonalEdgeStyle;rounded=0;orthogonalLoop=1;jettySize=auto;html=1;exitX=0.25;exitY=1;exitDx=0;exitDy=0;entryX=0.5;entryY=0;entryDx=0;entryDy=0;" parent="2" target="mlaz-VWcCHf4LHaq8jaL-41" edge="1">
          <mxGeometry relative="1" as="geometry">
            <mxPoint x="108" y="280" as="sourcePoint"/>
          </mxGeometry>
        </mxCell>
        <mxCell id="mlaz-VWcCHf4LHaq8jaL-58" style="edgeStyle=orthogonalEdgeStyle;rounded=0;orthogonalLoop=1;jettySize=auto;html=1;exitX=1;exitY=0;exitDx=0;exitDy=0;entryX=0;entryY=0.5;entryDx=0;entryDy=0;" parent="2" source="mlaz-VWcCHf4LHaq8jaL-50" target="jrbQsvojqIw6uEu-7x9d-22" edge="1">
          <mxGeometry relative="1" as="geometry">
            <mxPoint x="240" y="65" as="targetPoint"/>
          </mxGeometry>
        </mxCell>
        <mxCell id="mlaz-VWcCHf4LHaq8jaL-59" style="edgeStyle=orthogonalEdgeStyle;rounded=0;orthogonalLoop=1;jettySize=auto;html=1;exitX=1;exitY=0.5;exitDx=0;exitDy=0;entryX=0;entryY=0.5;entryDx=0;entryDy=0;" parent="2" source="mlaz-VWcCHf4LHaq8jaL-50" target="jrbQsvojqIw6uEu-7x9d-23" edge="1">
          <mxGeometry relative="1" as="geometry">
            <mxPoint x="240" y="145" as="targetPoint"/>
          </mxGeometry>
        </mxCell>
        <mxCell id="mlaz-VWcCHf4LHaq8jaL-50" value="choose" style="rhombus;whiteSpace=wrap;html=1;fillColor=#ffe6cc;strokeColor=#d79b00;" parent="2" vertex="1">
          <mxGeometry x="70" y="110" width="80" height="80" as="geometry"/>
        </mxCell>
        <mxCell id="mlaz-VWcCHf4LHaq8jaL-71" value="" style="ellipse;html=1;shape=startState;fillColor=#000000;strokeColor=#ff0000;" parent="2" vertex="1">
          <mxGeometry x="15" y="180" width="30" height="30" as="geometry"/>
        </mxCell>
        <mxCell id="mlaz-VWcCHf4LHaq8jaL-72" value="" style="edgeStyle=orthogonalEdgeStyle;html=1;verticalAlign=bottom;endArrow=open;endSize=8;strokeColor=#000000;entryX=0.25;entryY=1;entryDx=0;entryDy=0;" parent="2" source="mlaz-VWcCHf4LHaq8jaL-71" edge="1">
          <mxGeometry relative="1" as="geometry">
            <mxPoint x="58" y="90" as="targetPoint"/>
          </mxGeometry>
        </mxCell>
        <mxCell id="jrbQsvojqIw6uEu-7x9d-20" value="Login" style="rounded=1;whiteSpace=wrap;html=1;fillColor=#99FFFF;" vertex="1" parent="2">
          <mxGeometry x="30" y="40" width="110" height="50" as="geometry"/>
        </mxCell>
        <mxCell id="jrbQsvojqIw6uEu-7x9d-23" value="using Google-login" style="rounded=1;whiteSpace=wrap;html=1;fillColor=#99FFFF;" vertex="1" parent="2">
          <mxGeometry x="250" y="120" width="110" height="50" as="geometry"/>
        </mxCell>
        <mxCell id="jrbQsvojqIw6uEu-7x9d-24" value="&lt;div&gt;Story&lt;/div&gt;" style="rounded=1;whiteSpace=wrap;html=1;fillColor=#99FFFF;" vertex="1" parent="2">
          <mxGeometry x="240" y="315" width="110" height="50" as="geometry"/>
        </mxCell>
        <mxCell id="jrbQsvojqIw6uEu-7x9d-25" value="Settings" style="rounded=1;whiteSpace=wrap;html=1;fillColor=#99FFFF;" vertex="1" parent="2">
          <mxGeometry x="240" y="410" width="110" height="50" as="geometry"/>
        </mxCell>
        <mxCell id="jrbQsvojqIw6uEu-7x9d-22" value="using Guest-login" style="rounded=1;whiteSpace=wrap;html=1;fillColor=#99FFFF;" vertex="1" parent="2">
          <mxGeometry x="250" y="40" width="110" height="50" as="geometry"/>
        </mxCell>
        <mxCell id="jrbQsvojqIw6uEu-7x9d-27" value="stop application" style="rounded=1;whiteSpace=wrap;html=1;fillColor=#99FFFF;" vertex="1" parent="2">
          <mxGeometry x="290" y="590" width="110" height="50" as="geometry"/>
        </mxCell>
        <mxCell id="jrbQsvojqIw6uEu-7x9d-21" value="Main menu" style="rounded=1;whiteSpace=wrap;html=1;fillColor=#99FFFF;" vertex="1" parent="2">
          <mxGeometry x="80" y="230" width="110" height="50" as="geometry"/>
        </mxCell>
        <mxCell id="3" value="App/Server" style="swimlane;whiteSpace=wrap" parent="1" vertex="1">
          <mxGeometry x="600" y="40" width="535" height="710" as="geometry"/>
        </mxCell>
        <mxCell id="mlaz-VWcCHf4LHaq8jaL-51" value="login Guest" style="fillColor=#99FFFF;strokeColor=#000000;rounded=1;" parent="3" vertex="1">
          <mxGeometry x="40" y="40" width="120" height="50" as="geometry"/>
        </mxCell>
        <mxCell id="mlaz-VWcCHf4LHaq8jaL-63" style="edgeStyle=orthogonalEdgeStyle;rounded=0;orthogonalLoop=1;jettySize=auto;html=1;exitX=0.25;exitY=1;exitDx=0;exitDy=0;entryX=0.75;entryY=0;entryDx=0;entryDy=0;" parent="3" source="jrbQsvojqIw6uEu-7x9d-30" edge="1">
          <mxGeometry relative="1" as="geometry">
            <mxPoint x="130" y="170" as="sourcePoint"/>
            <mxPoint x="123" y="230" as="targetPoint"/>
          </mxGeometry>
        </mxCell>
        <mxCell id="mlaz-VWcCHf4LHaq8jaL-55" style="edgeStyle=orthogonalEdgeStyle;rounded=0;orthogonalLoop=1;jettySize=auto;html=1;exitX=0;exitY=0.5;exitDx=0;exitDy=0;entryX=0.955;entryY=0.5;entryDx=0;entryDy=0;entryPerimeter=0;" parent="3" source="mlaz-VWcCHf4LHaq8jaL-53" target="jrbQsvojqIw6uEu-7x9d-30" edge="1">
          <mxGeometry relative="1" as="geometry">
            <mxPoint x="220" y="145" as="targetPoint"/>
          </mxGeometry>
        </mxCell>
        <mxCell id="mlaz-VWcCHf4LHaq8jaL-53" value="use Google Data" style="fillColor=#99FFFF;strokeColor=#000000;rounded=1;" parent="3" vertex="1">
          <mxGeometry x="335" y="120" width="110" height="50" as="geometry"/>
        </mxCell>
        <mxCell id="mlaz-VWcCHf4LHaq8jaL-56" style="edgeStyle=orthogonalEdgeStyle;rounded=0;orthogonalLoop=1;jettySize=auto;html=1;exitX=0;exitY=0.5;exitDx=0;exitDy=0;entryX=1;entryY=0.5;entryDx=0;entryDy=0;" parent="3" source="mlaz-VWcCHf4LHaq8jaL-54" target="mlaz-VWcCHf4LHaq8jaL-51" edge="1">
          <mxGeometry relative="1" as="geometry"/>
        </mxCell>
        <mxCell id="mlaz-VWcCHf4LHaq8jaL-54" value="use local Data" style="fillColor=#99FFFF;strokeColor=#000000;rounded=1;" parent="3" vertex="1">
          <mxGeometry x="280" y="40" width="110" height="50" as="geometry"/>
        </mxCell>
        <mxCell id="mlaz-VWcCHf4LHaq8jaL-73" value="" style="ellipse;html=1;shape=endState;fillColor=#000000;strokeColor=#ff0000;" parent="3" vertex="1">
          <mxGeometry x="170" y="600" width="30" height="30" as="geometry"/>
        </mxCell>
        <mxCell id="jrbQsvojqIw6uEu-7x9d-26" value="switch to Settings" style="rounded=1;whiteSpace=wrap;html=1;fillColor=#99FFFF;" vertex="1" parent="3">
          <mxGeometry x="40" y="410" width="110" height="50" as="geometry"/>
        </mxCell>
        <mxCell id="jrbQsvojqIw6uEu-7x9d-28" value="start the Game in Storymode" style="rounded=1;whiteSpace=wrap;html=1;fillColor=#99FFFF;" vertex="1" parent="3">
          <mxGeometry x="45" y="323" width="110" height="50" as="geometry"/>
        </mxCell>
        <mxCell id="jrbQsvojqIw6uEu-7x9d-29" value="go to Main screen" style="rounded=1;whiteSpace=wrap;html=1;fillColor=#99FFFF;" vertex="1" parent="3">
          <mxGeometry x="40" y="230" width="110" height="50" as="geometry"/>
        </mxCell>
        <mxCell id="jrbQsvojqIw6uEu-7x9d-30" value="login Google" style="rounded=1;whiteSpace=wrap;html=1;fillColor=#99FFFF;" vertex="1" parent="3">
          <mxGeometry x="105" y="120" width="110" height="50" as="geometry"/>
        </mxCell>
        <mxCell id="jrbQsvojqIw6uEu-7x9d-36" value="" style="endArrow=classic;html=1;exitX=0.25;exitY=1;exitDx=0;exitDy=0;entryX=0.25;entryY=0;entryDx=0;entryDy=0;" edge="1" parent="3" source="mlaz-VWcCHf4LHaq8jaL-51" target="jrbQsvojqIw6uEu-7x9d-29">
          <mxGeometry width="50" height="50" relative="1" as="geometry">
            <mxPoint x="290" y="320" as="sourcePoint"/>
            <mxPoint x="340" y="270" as="targetPoint"/>
            <Array as="points"/>
          </mxGeometry>
        </mxCell>
        <mxCell id="mlaz-VWcCHf4LHaq8jaL-60" style="edgeStyle=orthogonalEdgeStyle;rounded=0;orthogonalLoop=1;jettySize=auto;html=1;exitX=1;exitY=0.5;exitDx=0;exitDy=0;entryX=0;entryY=0.5;entryDx=0;entryDy=0;" parent="1" target="mlaz-VWcCHf4LHaq8jaL-51" edge="1">
          <mxGeometry relative="1" as="geometry">
            <mxPoint x="520" y="105" as="sourcePoint"/>
          </mxGeometry>
        </mxCell>
        <mxCell id="mlaz-VWcCHf4LHaq8jaL-61" style="edgeStyle=orthogonalEdgeStyle;rounded=0;orthogonalLoop=1;jettySize=auto;html=1;exitX=1;exitY=0.5;exitDx=0;exitDy=0;entryX=0;entryY=0.5;entryDx=0;entryDy=0;" parent="1" edge="1">
          <mxGeometry relative="1" as="geometry">
            <mxPoint x="520" y="185" as="sourcePoint"/>
            <mxPoint x="700" y="185" as="targetPoint"/>
          </mxGeometry>
        </mxCell>
        <mxCell id="mlaz-VWcCHf4LHaq8jaL-64" style="edgeStyle=orthogonalEdgeStyle;rounded=0;orthogonalLoop=1;jettySize=auto;html=1;exitX=0;exitY=0.5;exitDx=0;exitDy=0;entryX=1;entryY=0.5;entryDx=0;entryDy=0;" parent="1" edge="1">
          <mxGeometry relative="1" as="geometry">
            <mxPoint x="640" y="295" as="sourcePoint"/>
            <mxPoint x="350" y="295" as="targetPoint"/>
          </mxGeometry>
        </mxCell>
        <mxCell id="mlaz-VWcCHf4LHaq8jaL-68" style="edgeStyle=orthogonalEdgeStyle;rounded=0;orthogonalLoop=1;jettySize=auto;html=1;exitX=1;exitY=0.5;exitDx=0;exitDy=0;entryX=0;entryY=0.5;entryDx=0;entryDy=0;" parent="1" target="jrbQsvojqIw6uEu-7x9d-28" edge="1">
          <mxGeometry relative="1" as="geometry">
            <mxPoint x="510" y="380" as="sourcePoint"/>
            <mxPoint x="640" y="385" as="targetPoint"/>
          </mxGeometry>
        </mxCell>
        <mxCell id="mlaz-VWcCHf4LHaq8jaL-70" style="edgeStyle=orthogonalEdgeStyle;rounded=0;orthogonalLoop=1;jettySize=auto;html=1;exitX=1;exitY=0.5;exitDx=0;exitDy=0;entryX=0;entryY=0.5;entryDx=0;entryDy=0;" parent="1" edge="1">
          <mxGeometry relative="1" as="geometry">
            <mxPoint x="510" y="475" as="sourcePoint"/>
            <mxPoint x="640" y="475" as="targetPoint"/>
          </mxGeometry>
        </mxCell>
        <mxCell id="mlaz-VWcCHf4LHaq8jaL-75" style="edgeStyle=orthogonalEdgeStyle;rounded=0;orthogonalLoop=1;jettySize=auto;html=1;exitX=1;exitY=0.5;exitDx=0;exitDy=0;entryX=0;entryY=0.5;entryDx=0;entryDy=0;strokeColor=#000000;" parent="1" target="mlaz-VWcCHf4LHaq8jaL-73" edge="1">
          <mxGeometry relative="1" as="geometry">
            <mxPoint x="560" y="655" as="sourcePoint"/>
          </mxGeometry>
        </mxCell>
      </root>
    </mxGraphModel>
  </diagram>
</mxfile>
